<svg id="ef84jSKO1eu1" xmlns="http://www.w3.org/2000/svg" xmlns:xlink="http://www.w3.org/1999/xlink" viewBox="60 9.15 35.949997 173.199997" shape-rendering="geometricPrecision" text-rendering="geometricPrecision" project-id="1f3e3670c3094e88bea54a5ba25235f0" export-id="2c8b6a278b6a4803a9a80069e4f68eb1" cached="false"><g transform="matrix(0 1-1 0 105.099997 9.15)"><g><path d="M27.4,42.4q0-1.15-.67-3.2-.68-2.05-1.98-5.55h-15.25q-1.05,3.1-1.6,5.1t-.55,3.15q0,1.45.95,1.78.95.32,2.85.32l.1.6L0,44.6l.1-.6q1.3,0,2.28-.3.97-.3,1.82-1.3t1.8-3.1t2.2-5.75L12.65,20.7q1-2.85,1.5-4.47.5-1.63.68-2.53.17-.9.17-1.55q0-1.15-.7-1.57-.7-.43-2.7-.43l-.1-.55h8.25L28.6,33.55q1.35,3.65,2.23,5.75.87,2.1,1.62,3.1t1.6,1.3t2.2.3l.1.6h-12.5l.1-.6q1.75,0,2.6-.27.85-.28.85-1.33M16.95,12.3L9.9,32.45h14.45L16.95,12.3Zm35.5,13.1q1.75.2,3.6.78q1.85.57,3.45,1.67t2.6,2.8t1,4.15q0,3.5-1.83,5.65-1.82,2.15-5.05,3.15-3.22,1-7.42,1h-11.75l.1-.6q1.7,0,2.7-.32q1-.33,1.47-1.38.48-1.05.6-3.2.13-2.15.13-5.8v-12.4q0-3.65-.13-5.8-.12-2.15-.6-3.2-.47-1.05-1.47-1.38-1-.32-2.7-.32l-.1-.6h11.2q1.1,0,2.67.15q1.58.15,3.25.6q1.68.45,3.16,1.32q1.47.88,2.37,2.31.9,1.42.9,3.52q0,2.5-1.3,4.1t-3.17,2.5q-1.88.9-3.68,1.3m3.8-7.9q0-1.9-.95-3.43-.95-1.52-3.28-2.42-2.32-.9-6.47-.9v14.3h.45q2.65,0,4.97-.62q2.33-.63,3.8-2.25q1.48-1.63,1.48-4.68M47.5,43.45q.7,0,2.05-.12q1.35-.13,2.92-.56q1.58-.42,3-1.34q1.43-.93,2.36-2.55.92-1.63.92-4.08q0-3-1.3-4.78-1.3-1.77-3.28-2.62-1.97-.85-4.1-1.1-2.12-.25-3.77-.25h-.75v8q0,3.45.12,5.35.13,1.9.53,2.78.4.87,1.3,1.27Zm54.8-16.7q0,5.1-2.05,9.27-2.05,4.18-5.92,6.63-3.88,2.45-9.38,2.45-4.1,0-7.37-1.42-3.28-1.43-5.6-3.93-2.33-2.5-3.56-5.85-1.22-3.35-1.22-7.15q0-5.1,2.08-9.07q2.07-3.98,5.95-6.26q3.87-2.27,9.32-2.27q5.5,0,9.48,2.27q3.97,2.28,6.12,6.26q2.15,3.97,2.15,9.07m-4.35.35q0-4.85-1.52-8.65-1.53-3.8-4.5-5.97-2.98-2.18-7.38-2.18-4.35,0-7.25,2.18-2.9,2.17-4.32,5.97-1.43,3.8-1.43,8.65t1.53,8.67q1.52,3.83,4.52,6q3,2.18,7.35,2.18q4.4,0,7.28-2.18q2.87-2.17,4.3-6q1.42-3.82,1.42-8.67ZM142.7,9.6l-.1.6q-1.7,0-2.77.32-1.08.33-1.65,1.4-.58,1.08-.8,3.23-.23,2.15-.23,5.8v9.8q0,4.35-1.22,7.17-1.23,2.83-3.2,4.38-1.98,1.55-4.25,2.18-2.28.62-4.38.62-4.95,0-7.92-1.75-2.98-1.75-4.3-4.87-1.33-3.13-1.33-7.23v-10.35q0-3.65-.15-5.8t-.62-3.2q-.48-1.05-1.45-1.38-.98-.32-2.68-.32l-.1-.6h13.45l-.1.6q-1.7,0-2.67.32-.98.33-1.45,1.38-.48,1.05-.6,3.2-.13,2.15-.13,5.8v10.6q0,4.5,1.4,7.15t3.83,3.83q2.42,1.17,5.47,1.17q2.85,0,5.4-1.25t4.15-4.07q1.6-2.83,1.6-7.48v-9.9q0-3.65-.22-5.8-.23-2.15-.8-3.23-.58-1.07-1.63-1.4-1.05-.32-2.75-.32l-.1-.6h12.3Zm1.7,0h28.8v7.2l-.6-.1q0-3.25-3.1-4.68-3.1-1.42-8.9-1.42v22.7q0,3.65.15,5.8t.7,3.2t1.75,1.38q1.2.32,3.25.32l.1.6h-15.4l.1-.6q2.1,0,3.28-.32q1.17-.33,1.72-1.38t.7-3.2.15-5.8v-22.7q-5.75,0-8.92,1.42Q145,13.45,145,16.7l-.6.1v-7.2Z"/></g></g></svg>
