<svg id="enHjJNlCOLY1" xmlns="http://www.w3.org/2000/svg" xmlns:xlink="http://www.w3.org/1999/xlink" viewBox="0 9.15 35.949997 342.549988" shape-rendering="geometricPrecision" text-rendering="geometricPrecision" project-id="c307dbd55ba14b84b428cc07b8bb1b9f" export-id="439e0c49e32d4c72bc37a5c4104ca5b9" cached="false"><g transform="matrix(0 1-1 0 45.099997 9.15)"><g><path d="M31.6,39.25v1.5q-2.45,1.85-5.67,3.1-3.23,1.25-8.08,1.25-4.1,0-7.4-1.4t-5.62-3.85Q2.5,37.4,1.25,34.13Q0,30.85,0,27.1q0-5,2.08-9.05Q4.15,14,8.05,11.58q3.9-2.43,9.4-2.43q2.75,0,5.38.55q2.62.55,4.65,1.25q2.02.7,2.97,1.25v6.4l-.55-.1q-1.3-4.7-4.5-6.45t-7.95-1.75q-4.4,0-7.3,2.18-2.9,2.17-4.35,5.97t-1.45,8.65q0,4.75,1.55,8.5t4.58,5.9q3.02,2.15,7.37,2.15q3.4,0,5.85-.6t4.35-1.6t3.55-2.2ZM58.7,42.4q0-1.15-.67-3.2-.68-2.05-1.98-5.55h-15.25q-1.05,3.1-1.6,5.1t-.55,3.15q0,1.45.95,1.78.95.32,2.85.32l.1.6h-11.25l.1-.6q1.3,0,2.28-.3.97-.3,1.82-1.3t1.8-3.1t2.2-5.75L43.95,20.7q1-2.85,1.5-4.47.5-1.63.68-2.53.17-.9.17-1.55q0-1.15-.7-1.57-.7-.43-2.7-.43l-.1-.55h8.25L59.9,33.55q1.35,3.65,2.23,5.75.87,2.1,1.62,3.1t1.6,1.3t2.2.3l.1.6h-12.5l.1-.6q1.75,0,2.6-.27.85-.28.85-1.33M48.25,12.3L41.2,32.45h14.45L48.25,12.3Zm30,31.65q2.05,0,3.8-.68q1.75-.67,2.85-2.19Q86,39.55,86,37q0-2.1-1.25-3.67-1.25-1.58-3.23-2.85-1.97-1.28-4.17-2.53t-4.18-2.7Q71.2,23.8,69.95,21.9t-1.25-4.5q0-2.5,1.32-4.35q1.33-1.85,3.55-2.88Q75.8,9.15,78.5,9.15q2.45,0,4.97.6q2.53.6,4.23,1.45q0,2.35-.25,4.55t-.5,4.05l-.75-.2q0-3.45-1.18-5.5-1.17-2.05-2.95-2.95-1.77-.9-3.52-.9-2.9,0-4.7,1.73-1.8,1.72-1.8,4.37q0,2.2,1.25,3.75t3.22,2.78q1.98,1.22,4.18,2.39q2.2,1.18,4.18,2.58q1.97,1.4,3.22,3.33q1.25,1.92,1.25,4.62q0,3.3-1.63,5.35-1.62,2.05-4.17,3t-5.35.95q-1.55,0-3.32-.33-1.78-.32-3.43-1.02t-2.85-1.8q0-2.35.2-4.3t.4-3.8l.75.15q0,3.4,1.15,5.63q1.15,2.22,3.05,3.27t4.1,1.05Zm40.95-6.5l.6-.1v7.25h-25.2l.1-.6q1.7,0,2.68-.32.97-.33,1.44-1.38.48-1.05.63-3.2t.15-5.8v-12.4q0-3.65-.15-5.8t-.63-3.22q-.47-1.08-1.44-1.4-.98-.33-2.68-.33l-.1-.55h23.35v7.2l-.6-.1q0-3.5-3.72-4.72-3.73-1.23-10.58-1.23v15.75q3.55,0,5.6-.25t3.05-.82q1-.58,1.27-1.66.28-1.07.28-2.72l.55-.1v12.15l-.55-.1q0-1.65-.28-2.73-.27-1.07-1.27-1.64-1-.58-3.05-.81-2.05-.22-5.6-.22v6.45q0,3.45.15,5.35t.57,2.78q.43.87,1.33,1.27q4.15,0,7.32-.6q3.18-.6,4.98-1.92q1.8-1.33,1.8-3.48Zm28.6,6.5q2.05,0,3.8-.68q1.75-.67,2.85-2.19q1.1-1.53,1.1-4.08q0-2.1-1.25-3.67-1.25-1.58-3.23-2.85-1.97-1.28-4.17-2.53t-4.18-2.7q-1.97-1.45-3.22-3.35t-1.25-4.5q0-2.5,1.32-4.35q1.33-1.85,3.55-2.88q2.23-1.02,4.93-1.02q2.45,0,4.97.6q2.53.6,4.23,1.45q0,2.35-.25,4.55t-.5,4.05l-.75-.2q0-3.45-1.18-5.5-1.17-2.05-2.95-2.95-1.77-.9-3.52-.9-2.9,0-4.7,1.73-1.8,1.72-1.8,4.37q0,2.2,1.25,3.75t3.22,2.78q1.98,1.22,4.18,2.39q2.2,1.18,4.17,2.58q1.98,1.4,3.23,3.33q1.25,1.92,1.25,4.62q0,3.3-1.63,5.35-1.62,2.05-4.17,3t-5.35.95q-1.55,0-3.33-.33-1.77-.32-3.42-1.02t-2.85-1.8q0-2.35.2-4.3t.4-3.8l.75.15q0,3.4,1.15,5.63q1.15,2.22,3.05,3.27t4.1,1.05ZM162.4,9.6h28.8v7.2l-.6-.1q0-3.25-3.1-4.68-3.1-1.42-8.9-1.42v22.7q0,3.65.15,5.8t.7,3.2t1.75,1.38q1.2.32,3.25.32l.1.6h-15.4l.1-.6q2.1,0,3.27-.32q1.18-.33,1.73-1.38t.7-3.2.15-5.8v-22.7q-5.75,0-8.93,1.42Q163,13.45,163,16.7l-.6.1v-7.2Zm68.2,0l-.1.6q-1.7,0-2.78.32-1.07.33-1.65,1.4-.57,1.08-.8,3.23-.22,2.15-.22,5.8v9.8q0,4.35-1.23,7.17-1.22,2.83-3.19,4.38-1.98,1.55-4.25,2.18-2.28.62-4.38.62-4.95,0-7.93-1.75-2.97-1.75-4.3-4.87-1.32-3.13-1.32-7.23v-10.35q0-3.65-.15-5.8t-.63-3.2q-.47-1.05-1.45-1.38-.97-.32-2.67-.32l-.1-.6h13.45l-.1.6q-1.7,0-2.67.32-.98.33-1.46,1.38-.47,1.05-.6,3.2-.12,2.15-.12,5.8v10.6q0,4.5,1.4,7.15t3.82,3.83q2.43,1.17,5.48,1.17q2.85,0,5.4-1.25t4.15-4.07q1.6-2.83,1.6-7.48v-9.9q0-3.65-.23-5.8-.22-2.15-.8-3.23-.57-1.07-1.62-1.4-1.05-.32-2.75-.32l-.1-.6h12.3Zm3.45,0h10.1q2.1,0,4.65.13q2.55.12,5.22.62q2.68.5,5.18,1.63q2.5,1.12,4.47,3.02q1.98,1.9,3.15,4.88Q268,22.85,268,27.1q0,4.2-1.18,7.13-1.17,2.92-3.1,4.85-1.92,1.92-4.22,3.05-2.3,1.12-4.62,1.64-2.33.53-4.28.68t-3.1.15h-13.45l.1-.6q1.7,0,2.67-.32.98-.33,1.45-1.38.48-1.05.63-3.2t.15-5.8v-12.4q0-3.65-.15-5.8t-.63-3.22q-.47-1.08-1.45-1.4-.97-.33-2.67-.33l-.1-.55M244.4,43.4q.45.05.97.05.53,0,1.03,0q2.15,0,4.52-.43q2.38-.42,4.65-1.47q2.28-1.05,4.1-2.92q1.83-1.88,2.9-4.71q1.08-2.82,1.08-6.82q0-3.95-1.08-6.78-1.07-2.82-2.87-4.67t-4.05-2.92q-2.25-1.08-4.63-1.53-2.37-.45-4.57-.45-2.25,0-3.9.3v22.85q0,3.45.1,5.35t.5,2.8t1.25,1.35Zm36.35-22.5v12.4q0,3.65.15,5.8t.62,3.2q.48,1.05,1.46,1.38.97.32,2.67.32l.1.6h-13.5l.1-.6q1.7,0,2.7-.32q1-.33,1.47-1.38.48-1.05.61-3.2.12-2.15.12-5.8v-12.4q0-3.65-.12-5.8-.13-2.15-.61-3.22-.47-1.08-1.47-1.4-1-.33-2.7-.33l-.1-.55h13.5l-.1.55q-1.7,0-2.67.33-.98.32-1.46,1.4-.47,1.07-.62,3.22t-.15,5.8Zm34.6,16.55l.6-.1v7.25h-25.2l.1-.6q1.7,0,2.67-.32.98-.33,1.46-1.38.47-1.05.62-3.2t.15-5.8v-12.4q0-3.65-.15-5.8t-.62-3.22q-.48-1.08-1.46-1.4-.97-.33-2.67-.33l-.1-.55h23.35v7.2l-.6-.1q0-3.5-3.73-4.72-3.72-1.23-10.57-1.23v15.75q3.55,0,5.6-.25t3.05-.82q1-.58,1.28-1.66.27-1.07.27-2.72l.55-.1v12.15l-.55-.1q0-1.65-.27-2.73-.28-1.07-1.28-1.64-1-.58-3.05-.81-2.05-.22-5.6-.22v6.45q0,3.45.15,5.35t.58,2.78q.42.87,1.32,1.27q4.15,0,7.32-.6q3.18-.6,4.98-1.92q1.8-1.33,1.8-3.48Zm16.1,6.5q2.05,0,3.8-.68q1.75-.67,2.85-2.19q1.1-1.53,1.1-4.08q0-2.1-1.25-3.67-1.25-1.58-3.22-2.85-1.98-1.28-4.18-2.53t-4.17-2.7q-1.98-1.45-3.23-3.35t-1.25-4.5q0-2.5,1.33-4.35q1.32-1.85,3.55-2.88Q329,9.15,331.7,9.15q2.45,0,4.98.6q2.52.6,4.22,1.45q0,2.35-.25,4.55t-.5,4.05l-.75-.2q0-3.45-1.17-5.5-1.18-2.05-2.95-2.95-1.78-.9-3.53-.9-2.9,0-4.7,1.73-1.8,1.72-1.8,4.37q0,2.2,1.25,3.75t3.23,2.78q1.97,1.22,4.17,2.39q2.2,1.18,4.17,2.58q1.98,1.4,3.23,3.33q1.25,1.92,1.25,4.62q0,3.3-1.62,5.35-1.63,2.05-4.18,3t-5.35.95q-1.55,0-3.33-.33-1.77-.32-3.42-1.02t-2.85-1.8q0-2.35.2-4.3t.4-3.8l.75.15q0,3.4,1.15,5.63q1.15,2.22,3.05,3.27t4.1,1.05Z"/></g></g></svg>
